<svg xmlns="http://www.w3.org/2000/svg" fill="none" width="11" height="11" viewBox="0 0 11 11"><path fill="#fff" d="M8.695 3.278h-.5V.5h-6v2.778h-.5c-.83 0-1.5.744-1.5 1.666v3.334h2V10.5h6V8.278h2V4.944c0-.922-.67-1.666-1.5-1.666Zm-5.5-1.667h4v1.667h-4V1.61Zm4 7.778h-4V7.167h4v2.222Zm1-2.222V6.055h-6v1.112h-1V4.944c0-.305.225-.555.5-.555h7c.275 0 .5.25.5.555v2.223h-1Z"/><path fill="#fff" d="M8.195 5.778c.276 0 .5-.249.5-.556 0-.307-.224-.555-.5-.555s-.5.248-.5.555c0 .307.224.556.5.556Z"/></svg>
