<svg height="50" viewBox="0 0 50 50" width="50" xmlns="http://www.w3.org/2000/svg"><g transform="translate(1 1)"><path d="m24 0a24 24 0 1 1 -24 24 24 24 0 0 1 24-24z" fill="none" stroke="#2863c5" stroke-width="2"/><path d="m30 7.753a3.715 3.715 0 0 0 -2.614-2.631c-2.309-.622-11.554-.622-11.554-.622s-9.245 0-11.551.622a3.715 3.715 0 0 0 -2.613 2.631 38.97 38.97 0 0 0 -.618 7.162 38.97 38.97 0 0 0 .618 7.162 3.659 3.659 0 0 0 2.614 2.589c2.306.622 11.551.622 11.551.622s9.245 0 11.551-.622a3.66 3.66 0 0 0 2.616-2.589 38.97 38.97 0 0 0 .618-7.162 38.97 38.97 0 0 0 -.618-7.162zm-17.191 11.558v-8.792l7.727 4.4-7.727 4.4z" fill="#2863c5" transform="translate(8.168 9.106)"/></g></svg>