<svg height="50" viewBox="0 0 50 50" width="50" xmlns="http://www.w3.org/2000/svg"><g transform="translate(1 1)"><path d="m24 0a24 24 0 1 1 -24 24 24 24 0 0 1 24-24z" fill="none" stroke="#2863c5" stroke-width="2"/><g fill="#2863c5" transform="translate(11.2 11.2)"><path d="m4.248 8.5a4.248 4.248 0 1 0 -4.248-4.252 4.248 4.248 0 0 0 4.248 4.252z" transform="translate(8.497 8.497)"/><path d="m18.055 0h-10.621a7.444 7.444 0 0 0 -7.434 7.436v10.621a7.443 7.443 0 0 0 7.436 7.433h10.621a7.444 7.444 0 0 0 7.434-7.436v-10.62a7.444 7.444 0 0 0 -7.436-7.434zm-5.31 19.118a6.373 6.373 0 1 1 6.373-6.373 6.379 6.379 0 0 1 -6.373 6.373zm7.435-12.745a1.062 1.062 0 1 1 1.062-1.063 1.062 1.062 0 0 1 -1.062 1.063z"/></g></g></svg>