<svg height="50" viewBox="0 0 50 50" width="50" xmlns="http://www.w3.org/2000/svg"><g transform="translate(1 1)"><path d="m24 0a24 24 0 1 1 -24 24 24 24 0 0 1 24-24z" fill="none" stroke="#2863c5" stroke-width="2"/><path d="m66.989 21.364a5.707 5.707 0 0 1 -.494-.287 6.942 6.942 0 0 1 -1.268-1.077 5.981 5.981 0 0 1 -1.427-2.949 3.632 3.632 0 0 1 -.054-1.051h-4.307v16.655c0 .224 0 .445-.009.663v.082a.18.18 0 0 1 0 .037v.009a3.657 3.657 0 0 1 -1.84 2.9 3.6 3.6 0 0 1 -1.782.47 3.657 3.657 0 0 1 0-7.315 3.6 3.6 0 0 1 1.119.177l.005-4.386a8 8 0 0 0 -6.165 1.8 8.453 8.453 0 0 0 -1.844 2.274 7.881 7.881 0 0 0 -.951 3.618 8.538 8.538 0 0 0 .462 2.859v.01a8.418 8.418 0 0 0 1.166 2.141 8.753 8.753 0 0 0 1.866 1.76v-.01l.01.01a8.06 8.06 0 0 0 4.4 1.324 7.784 7.784 0 0 0 3.263-.722 8.19 8.19 0 0 0 2.65-1.992 8.279 8.279 0 0 0 1.444-2.4 8.99 8.99 0 0 0 .52-2.745v-8.834c.052.031.748.492.748.492a9.962 9.962 0 0 0 2.567 1.061 14.782 14.782 0 0 0 2.632.362v-4.277a5.586 5.586 0 0 1 -2.711-.659z" fill="#2863c5" transform="translate(-35.159 -4.8)"/></g></svg>